<?xml version="1.0" encoding="utf-8"?>
<!-- Generator: Adobe Illustrator 25.0.1, SVG Export Plug-In . SVG Version: 6.00 Build 0)  -->
<svg version="1.1" id="Calque_1" xmlns="http://www.w3.org/2000/svg" xmlns:xlink="http://www.w3.org/1999/xlink" x="0px" y="0px"
	 viewBox="0 0 280 280" style="enable-background:new 0 0 280 280;" xml:space="preserve">
<style type="text/css">
	.st0{display:none;}
	.st1{display:inline;fill:#404040;}
	.st2{display:inline;fill:#FFFFFF;}
	.st3{fill:#404040;}
</style>
<g id="XMLID_322_" class="st0">
	<path id="XMLID_315_" class="st1" d="M270,280H10c-5.5,0-10-4.5-10-10V10C0,4.5,4.5,0,10,0h260c5.5,0,10,4.5,10,10v260
		C280,275.5,275.5,280,270,280z"/>
	<path id="XMLID_1_" class="st2" d="M264.8,63.3c-17.6-26-50.4-46.4-81.4-50.6c-41.1-9-93.4,2.1-143.5,30.6
		c-2.2,1.8-5.6,3.9-9.5,6.4C17.1,58.1-0.8,69.4,2.1,82.3l-0.2,0.1l0.2,0.2c0.2,0.9,0.5,1.8,1,2.7c1.1,2.6,2.5,4,4.1,4.3
		c3.4,0.5,7.1-4.1,9.5-7.1c0.3-0.4,0.7-0.8,0.9-1.1c14-10.6,31.7-17.5,47.2-23.5l3-1.2l1.1-0.5c9.5-4.7,18.5-9.1,23.8-5.9
		c3.4,2.1,5.1,7.1,5.3,15.5c2.8,10.6,3.9,21.1,4.9,31.2c1.1,10.9,2.2,21.3,5.2,31.5c-0.6,4-0.3,7.2,0.1,10.4
		c0.4,3.5,0.7,6.9-0.4,10.7c-2.4,1.5-3.7,1.5-6.7,1.1c-2.5-1.1-4.2-1-5,0.4c-1.5,2.6,0.8,8.6,1.9,11c2,4.5,4.6,8.6,6.4,9.8
		c11,6.3,10.2,18.3,9.6,27c-0.1,1.1-0.2,2.2-0.2,3.2l0,0l0,0c0.1,0.5,0.4,1.2,0.6,1.8c0.4,1,0.8,2.1,0.7,2.5v0.1v0.1
		c0.5,2.6,0.5,4.8,0.4,7.1s-0.2,4.6,0.3,7.7v0.1c2.1,3,1.8,7.5,1.5,12.3c-0.3,4.1-0.5,8.3,0.6,12.2c-1.9,7.9-1,14,2.7,18.2
		c3.6,4.1,9.8,6.2,18,6.2c2,0,4.2-0.1,6.5-0.4h0.1l0.1-0.1c2.2-5.3,1.7-11.3,1.1-17.2c-0.5-5.8-1.1-11.7,1.1-17.1
		c2.2-2.2,8.8-2.1,15.1-1.9c6.9,0.1,13.4,0.3,14.7-2.5c0.7-1.4-0.1-3.5-2.5-6.2c-2.2-7.2-9.2-5.8-16-4.5c-5.5,1.1-11.2,2.2-14-1.5
		c-4.7-21.5-5-31.8-1.2-36.6c2.8-3.6,8-4.2,15.2-4.5l0.5,0.3v-0.4c1.1,0,2.2-0.1,3.4-0.1c7.5-0.2,16.8-0.4,27.9-2.9l0.3-0.1
		c32.5-8.4,77.1-19.9,85.5-56.9C280.9,100,276.9,81.1,264.8,63.3z M261.8,86.2c-0.1,16.9-15.1,34.4-40.2,47
		c-15.3,7.3-62.6,26.4-78.8,17.9c-3.1-1.6-5-4.2-5.5-7.7c-1.7-29.2-5.5-51.2-11.1-77.4c-0.6-2.9-1.3-5.7-2-8.3
		c-2.1-8-3.8-14.4-0.8-18c2.2-2.7,6.9-3.7,14.7-3.3c30.9-5.5,64.4-0.7,94.4,13.5C251.7,59.6,261.9,72.2,261.8,86.2z"/>
</g>
<g id="XMLID_9_">
	<path id="XMLID_13_" class="st3" d="M232.5,49.9c-30-14.2-63.5-19-94.4-13.5c-7.8-0.4-12.5,0.6-14.7,3.3c-3,3.6-1.3,10,0.8,18
		c0.7,2.6,1.4,5.4,2,8.3c5.6,26.2,9.4,48.2,11.1,77.4c0.5,3.5,2.4,6.1,5.5,7.7c16.2,8.5,63.5-10.6,78.8-17.9
		c25.1-12.6,40.1-30.1,40.2-47C261.9,72.2,251.7,59.6,232.5,49.9z"/>
	<path id="XMLID_10_" class="st3" d="M270,0H10C4.5,0,0,4.5,0,10v260c0,5.5,4.5,10,10,10h260c5.5,0,10-4.5,10-10V10
		C280,4.5,275.5,0,270,0z M276.4,117.8c-8.4,37-53,48.5-85.5,56.9l-0.3,0.1c-11.1,2.5-20.4,2.7-27.9,2.9c-1.2,0-2.3,0.1-3.4,0.1v0.4
		l-0.5-0.3c-7.2,0.3-12.4,0.9-15.2,4.5c-3.8,4.8-3.5,15.1,1.2,36.6c2.8,3.7,8.5,2.6,14,1.5c6.8-1.3,13.8-2.7,16,4.5
		c2.4,2.7,3.2,4.8,2.5,6.2c-1.3,2.8-7.8,2.6-14.7,2.5c-6.3-0.2-12.9-0.3-15.1,1.9c-2.2,5.4-1.6,11.3-1.1,17.1
		c0.6,5.9,1.1,11.9-1.1,17.2l-0.1,0.1h-0.1c-2.3,0.3-4.5,0.4-6.5,0.4c-8.2,0-14.4-2.1-18-6.2c-3.7-4.2-4.6-10.3-2.7-18.2
		c-1.1-3.9-0.9-8.1-0.6-12.2c0.3-4.8,0.6-9.3-1.5-12.3v-0.1c-0.5-3.1-0.4-5.4-0.3-7.7s0.1-4.5-0.4-7.1v-0.1v-0.1
		c0.1-0.4-0.3-1.5-0.7-2.5c-0.2-0.6-0.5-1.3-0.6-1.8c0-1,0.1-2.1,0.2-3.2c0.6-8.7,1.4-20.7-9.6-27c-1.8-1.2-4.4-5.3-6.4-9.8
		c-1.1-2.4-3.4-8.4-1.9-11c0.8-1.4,2.5-1.5,5-0.4c3,0.4,4.3,0.4,6.7-1.1c1.1-3.8,0.8-7.2,0.4-10.7c-0.4-3.2-0.7-6.4-0.1-10.4
		c-3-10.2-4.1-20.6-5.2-31.5c-1-10.1-2.1-20.6-4.9-31.2c-0.2-8.4-1.9-13.4-5.3-15.5c-5.3-3.2-14.3,1.2-23.8,5.9l-1.1,0.5l-3,1.2
		c-15.5,6-33.2,12.9-47.2,23.5c-0.2,0.3-0.6,0.7-0.9,1.1c-2.4,3-6.1,7.6-9.5,7.1c-1.6-0.3-3-1.7-4.1-4.3c-0.5-0.9-0.8-1.8-1-2.7
		l-0.2-0.2l0.2-0.1c-2.9-12.9,15-24.2,28.3-32.6c3.9-2.5,7.3-4.6,9.5-6.4C90,14.8,142.3,3.7,183.4,12.7c31,4.2,63.8,24.6,81.4,50.6
		C276.9,81.1,280.9,100,276.4,117.8z"/>
</g>
</svg>
