<?xml version="1.0" encoding="utf-8"?>
<!-- Generator: Adobe Illustrator 25.0.1, SVG Export Plug-In . SVG Version: 6.00 Build 0)  -->
<svg version="1.1" id="Capa_1" xmlns="http://www.w3.org/2000/svg" xmlns:xlink="http://www.w3.org/1999/xlink" x="0px" y="0px"
	 viewBox="0 0 512 512" style="enable-background:new 0 0 512 512;" xml:space="preserve">
<style type="text/css">
	.st0{fill:#404040;}
</style>
<g id="XMLID_1_" transform="translate(1 1)">
	<g id="XMLID_2_">
		<g id="XMLID_3_">
			<path id="XMLID_6_" class="st0" d="M393,127H117c-15.2,0-27.6,11.5-27.6,25.6s12.4,25.6,27.6,25.6h276
				c15.2,0,27.6-11.5,27.6-25.6C420.6,138.5,408.2,127,393,127z"/>
			<path id="XMLID_5_" class="st0" d="M393,229.4H117c-15.2,0-27.6,11.5-27.6,25.6c0,14.1,12.4,25.6,27.6,25.6h276
				c15.2,0,27.6-11.5,27.6-25.6S408.2,229.4,393,229.4z"/>
			<path id="XMLID_4_" class="st0" d="M393,331.8H117c-15.2,0-27.6,11.5-27.6,25.6c0,14.1,12.4,25.6,27.6,25.6h276
				c15.2,0,27.6-11.5,27.6-25.6C420.6,343.3,408.2,331.8,393,331.8z"/>
		</g>
	</g>
</g>
<g id="XMLID_10_">
	<path class="st0" d="M495,17v478H18V17H495 M497.9,0H15.1C7.3,0,1,6.3,1,14.1v483.7c0,7.8,6.3,14.1,14.1,14.1h482.7
		c7.8,0,14.1-6.3,14.1-14.1V14.1C512,6.3,505.7,0,497.9,0L497.9,0z"/>
</g>
</svg>
